<?xml version="1.0" encoding="utf-8"?>
<svg viewBox="800 0 100 600" xmlns="http://www.w3.org/2000/svg">
  <defs>
    <style>{fill="currentColor"}</style>
  </defs>
  <polygon class="cls-1" points="208.38 481.35 78.28 134.42 4.94 134.42 162.52 545.95 254.23 545.95 411.82 134.42 338.47 134.42 208.38 481.35" />
  <rect class="cls-1" x="455.55" y="133.36" width="69.82" height="412.21" />
  <polygon class="cls-1" points="1625.64 419.35 1426.91 133.36 1361.12 133.36 1361.12 545.57 1428.25 545.57 1428.25 245.47 1639.06 545.57 1692.77 545.57 1692.77 133.36 1625.64 133.36 1625.64 419.35" />
  <path class="cls-1" d="M 1949.32 313.28 L 1877.49 296.5 C 1840.56 287.77 1823.11 270.31 1823.11 242.79 C 1823.11 208.55 1853.32 185.72 1897.63 185.72 C 1946.63 185.72 1972.83 209.89 1983.56 240.77 L 2053.39 240.77 C 2038.62 172.29 1986.25 126.64 1897 126.64 C 1813.76 126.64 1756.68 179.01 1756.68 248.83 C 1756.68 315.29 1802.34 346.18 1859.4 359.6 L 1929.23 376.38 C 1972.23 386.46 1988.98 403.24 1988.98 432.11 C 1988.98 470.38 1957.42 493.2 1909.08 493.2 C 1864.08 493.2 1829.19 473.73 1815.77 431.44 L 1744.6 431.44 C 1759.33 508 1821.77 552.28 1909 552.28 C 1994.27 552.28 2056 504.62 2056 427.41 C 2056.07 365.64 2013.77 328.05 1949.32 313.28 Z" />
  <polygon class="cls-1" points="2390.97 195.12 2390.97 133.36 2121.76 133.36 2121.76 545.57 2390.97 545.57 2390.97 483.13 2190.24 483.13 2190.24 364.97 2372.17 364.97 2372.17 303.88 2190.24 303.88 2190.24 195.12 2390.97 195.12" />
  <path class="cls-1" d="M 1290.35 195.13 L 1290.35 133.36 L 1021.14 133.36 L 1021.14 308.26 L 1020.14 308.2 C 998.43 306.91 967.99 304.86 949.05 301.78 C 954.051 276.598 955.716 250.867 954 225.25 C 948.7 157.56 906.08 115.49 842.75 115.49 C 787.35 115.49 743.19 154.37 737.75 205.81 C 737.373 209.394 737.182 212.996 737.18 216.6 C 737.18 257.36 757.64 284.53 784.84 304.28 L 784.84 304.28 C 784.84 304.28 798.6 315.28 827.5 328.91 C 841.734 335.422 856.335 341.098 871.23 345.91 L 871.23 345.91 L 871.36 345.91 L 871.08 346.55 L 871.08 346.55 L 869.49 350.24 C 868.88 351.63 868.22 353.07 867.58 354.49 C 867.29 355.15 867 355.81 866.7 356.49 C 866.19 357.6 865.7 358.73 865.13 359.86 C 864.5 361.21 863.86 362.54 863.22 363.86 C 862.79 364.75 862.37 365.63 861.93 366.52 C 843.93 402.96 815.59 445.93 782.29 483.91 L 778.18 488.59 L 778 488.8 L 777.14 486.8 L 641.22 134.43 L 567.88 134.43 L 571.88 144.43 L 731.5 546 L 806.57 546 C 859.11 493.23 902.96 428 927.41 371.7 C 927.41 371.7 930.49 364.48 931.74 361.12 L 931.74 361.12 C 956.04 365.41 992.22 368.12 1020.1 369.61 L 1021.1 369.67 L 1021.1 545.67 L 1290.31 545.67 L 1290.31 483.14 L 1089.62 483.14 L 1089.62 371.22 L 1271.56 370.95 L 1271.56 309.85 L 1089.62 309.85 L 1089.62 195.13 Z M 888.71 284.47 L 888.71 284.47 C 888.71 284.22 888.8 283.98 888.83 283.73 Z M 888.65 284.47 C 871.93 277.66 857.07 271.47 845.92 265.89 C 826.11 255.99 803.2 242.36 803.2 214.5 C 803.2 192.83 819.92 176.73 844.07 176.73 C 868.84 176.73 888.07 197.16 890.51 227.5 C 891.76 246.505 891.137 265.587 888.65 284.47 Z" />
  <path class="cls-1" d="M 888.71 284.47 L 888.81 283.72 C 888.81 283.97 888.73 284.21 888.69 284.46 Z" />
</svg>